<svg width="512" height="512" viewBox="0 0 512 512" fill="none" xmlns="http://www.w3.org/2000/svg">
<g clip-path="url(#clip0_5_202)">
<path d="M511.499 111.217C511.499 49.8914 461.608 0 400.282 0H392.266C330.94 0 281.049 49.8914 281.049 111.217C281.049 119.517 287.778 126.247 296.078 126.247H297.08V175.342C297.08 204.412 312.843 229.856 336.26 243.619L331.356 273.037C326.804 273.564 322.347 274.509 318.015 275.842C312.503 246.619 286.801 224.438 256 224.438C230.823 224.438 209.049 239.259 198.925 260.632C187.499 250.01 172.792 242.92 156.604 241.009L154.13 226.158C176.507 211.905 190.873 187.266 190.873 159.311C190.873 149.4 190.873 89.3435 190.873 79.1546C190.873 35.3951 155.485 0 111.718 0C68.0719 0 32.5636 35.5084 32.5636 79.1546V159.311C32.5636 187.364 47.2463 212.037 69.3164 226.1L66.8335 241.004C29.5387 245.383 0.500977 277.164 0.500977 315.616V399.781C0.500977 408.081 7.23012 414.81 15.5303 414.81H154.594C148.358 425.758 144.783 438.408 144.783 451.883V496.971C144.783 505.271 151.512 512 159.812 512H352.188C360.488 512 367.217 505.271 367.217 496.971V451.883C367.217 438.693 363.713 425.95 357.391 414.81H472.423C480.723 414.81 487.452 408.081 487.452 399.781V347.679C487.452 309.222 458.416 277.42 421.114 273.045L416.21 243.619C439.627 229.855 455.389 204.412 455.389 175.342V164.401C463.747 167.067 472.875 167.144 481.44 164.438V207.405C481.44 215.705 488.169 222.434 496.47 222.434C504.77 222.434 511.499 215.705 511.499 207.405C511.499 207.305 511.499 210.607 511.499 111.217V111.217ZM392.266 30.0587H400.282C434.254 30.0587 463.4 51.0497 475.479 80.7347C461.302 78.4071 447.464 83.2326 437.829 92.9646C432.816 89.073 426.268 81.5573 422.909 67.6181C419.985 55.4864 404.353 52.0116 396.563 61.7506C370.692 94.0888 317.583 96.0676 312.504 96.1819C319.575 58.5894 352.652 30.0587 392.266 30.0587V30.0587ZM222.935 287.562C222.935 269.33 237.768 254.497 256 254.497C274.232 254.497 289.065 269.33 289.065 287.562V311.609C289.065 329.84 274.232 344.673 256 344.673C237.768 344.673 222.935 329.84 222.935 311.609V287.562ZM111.718 30.0587C138.865 30.0587 160.814 52.0026 160.814 79.1546V82.6384C149.198 83.4009 137.768 80.5754 128.111 73.4835C124.219 70.6179 122.57 68.61 121.205 67.4958C115.279 62.6624 106.572 63.0451 101.091 68.5278C90.4957 79.1235 76.8301 83.5873 62.6223 82.6344V79.1546C62.6223 52.0827 84.6463 30.0587 111.718 30.0587V30.0587ZM62.6223 112.687C80.0884 113.457 97.1377 109.051 111.718 98.7609C126.382 109.107 143.454 113.443 160.814 112.687V159.311C160.814 186.459 138.87 208.407 111.718 208.407C84.6463 208.407 62.6223 186.383 62.6223 159.311V112.687ZM125.505 237.253L127.979 252.106L111.718 276.498L95.4574 252.106L97.9343 237.239C106.912 238.823 115.967 238.919 125.505 237.253V237.253ZM30.5597 315.616C30.5597 292.074 48.6991 272.702 71.7321 270.709L99.2128 311.929C105.148 320.834 118.272 320.857 124.224 311.929L151.705 270.707C174.816 272.718 192.265 292.031 192.886 314.091C193.573 331.879 201.704 347.777 214.187 358.841L211.119 377.249C202.255 378.289 193.867 380.893 186.215 384.751C170.678 384.751 45.5199 384.751 30.5587 384.751V315.616H30.5597ZM337.159 481.941H174.841V451.883C174.841 427.021 195.068 406.795 219.93 406.795H223.937C231.285 406.795 237.554 401.483 238.762 394.236L242.267 373.21C251.04 375.165 260.291 375.314 269.734 373.21L273.239 394.236C274.446 401.483 280.715 406.795 288.063 406.795H292.07C317.386 406.795 337.159 427.459 337.159 451.883V481.941ZM387.55 254.497L393.473 290.032C394.681 297.28 400.95 302.591 408.297 302.591H412.305C437.167 302.591 457.393 322.818 457.393 347.679V384.751H325.841C318.029 380.821 309.573 378.279 300.881 377.254L297.813 358.842C310.87 347.268 319.123 330.388 319.123 311.609V307.783C325.555 304.371 332.713 302.591 340.164 302.591H344.172C351.52 302.591 357.789 297.28 358.997 290.032L364.92 254.497H387.55ZM425.331 175.342C425.331 202.414 403.307 224.438 376.235 224.438C349.163 224.438 327.139 202.414 327.139 175.342V125.243C345.532 123.169 377.265 116.821 402.689 97.3952C409.345 108.764 417.786 116.288 425.331 120.826V175.342ZM468.47 136.375C461.071 136.375 455.086 130.199 455.401 122.731C455.678 116.185 460.964 110.724 467.499 110.25C474.596 109.735 480.607 114.922 481.44 121.689C482.564 128.809 476.72 136.375 468.47 136.375Z" fill="#9B8DB7"/>
<path d="M69.0288 445.264L63.6243 450.667L58.2197 445.264C52.3513 439.394 42.8347 439.394 36.9652 445.264C31.0957 451.133 31.0957 460.649 36.9652 466.518L52.9965 482.549C58.865 488.419 68.3816 488.42 74.251 482.549L90.2823 466.518C96.1518 460.649 96.1518 451.133 90.2823 445.264C84.4139 439.393 74.8973 439.393 69.0288 445.264Z" fill="#9B8DB7"/>
<path d="M453.78 445.264L448.376 450.667L442.971 445.264C437.103 439.394 427.586 439.394 421.717 445.264C415.847 451.133 415.847 460.649 421.717 466.518L437.748 482.549C443.616 488.419 453.133 488.42 459.002 482.549L475.034 466.518C480.903 460.649 480.903 451.133 475.034 445.264C469.165 439.393 459.649 439.393 453.78 445.264Z" fill="#9B8DB7"/>
</g>
<defs>
<clipPath id="clip0_5_202">
<rect width="512" height="512" fill="white"/>
</clipPath>
</defs>
</svg>
