<svg width="512" height="512" viewBox="0 0 512 512" fill="none" xmlns="http://www.w3.org/2000/svg">
<g clip-path="url(#clip0_5_89)">
<path d="M510.344 297.178C456.926 192.523 461.011 199.884 458.714 197.53C455.732 194.494 451.85 193.004 447.987 193.004H382.991V147.116L430.194 125.664C438.274 121.991 441.395 112.157 436.977 104.51L398.3 37.5147C384.947 14.3841 360.06 0.0159912 333.352 0.0159912C314.183 0.0159912 201.159 0.0159912 178.644 0.0159912C151.936 0.0159912 127.049 14.3841 113.696 37.5147L75.0184 104.51C70.5977 112.164 73.7305 121.995 81.802 125.664L129.005 147.116V193.004C59.0003 193.004 62.2592 192.566 58.4734 194.072C54.9966 195.451 52.2368 198.066 50.6489 201.185L1.65183 297.179C-3.43186 307.14 3.8117 318.997 15.011 318.997H49.009V496.986C49.009 505.269 55.7246 511.985 64.0081 511.985H447.985C456.268 511.985 462.984 505.269 462.984 496.986V318.997H496.982C508.168 318.997 515.436 307.154 510.344 297.178V297.178ZM294.188 30.0142C288.151 45.6302 273.095 57.0125 256 57.0125C238.905 57.0125 223.849 45.6302 217.813 30.0142H294.188ZM159.005 160.755C169.888 165.703 171.743 167.01 175.995 167.01C181.695 167.01 187.145 163.742 189.658 158.215C193.087 150.674 189.753 141.781 182.213 138.353C94.2312 98.349 195.388 144.333 109.264 105.194L139.676 52.5138C147.689 38.6357 162.621 30.0142 178.646 30.0142H186.586C193.321 61.8432 221.504 87.0107 255.999 87.0107C290.431 87.0107 318.665 61.9072 325.413 30.0142H333.353C349.377 30.0142 364.31 38.6357 372.322 52.5138L402.735 105.194C315.333 144.914 418.054 98.219 329.786 138.353C322.245 141.782 318.912 150.674 322.34 158.215C324.854 163.742 330.303 167.01 336.004 167.01C340.24 167.01 341.965 165.77 352.994 160.755V193.004H159.005V160.755ZM432.989 481.987H79.0101V318.997H432.989V481.987ZM39.5095 288.998L73.1955 223.002H438.804L472.49 288.998H39.5095Z" fill="#9B8DB7"/>
<path d="M287.998 446.989H383.992C392.275 446.989 398.991 440.273 398.991 431.99C398.991 423.706 392.275 416.991 383.992 416.991H287.998C279.714 416.991 272.999 423.706 272.999 431.99C272.999 440.273 279.714 446.989 287.998 446.989Z" fill="#9B8DB7"/>
<path d="M287.998 382.993H383.992C392.275 382.993 398.991 376.277 398.991 367.994C398.991 359.71 392.275 352.995 383.992 352.995H287.998C279.714 352.995 272.999 359.71 272.999 367.994C272.999 376.277 279.714 382.993 287.998 382.993Z" fill="#9B8DB7"/>
<path d="M128.007 446.989H224.001C232.285 446.989 239 440.273 239 431.99V367.994C239 359.71 232.285 352.995 224.001 352.995H128.007C119.724 352.995 113.008 359.71 113.008 367.994V431.99C113.008 440.273 119.724 446.989 128.007 446.989ZM143.006 382.993H209.002V416.991H143.006V382.993Z" fill="#9B8DB7"/>
<path d="M279.998 121.009H232.001C223.717 121.009 217.002 127.724 217.002 136.008C217.002 144.291 223.717 151.007 232.001 151.007H279.998C288.281 151.007 294.997 144.291 294.997 136.008C294.997 127.724 288.281 121.009 279.998 121.009V121.009Z" fill="#9B8DB7"/>
</g>
<defs>
<clipPath id="clip0_5_89">
<rect width="512" height="512" fill="white"/>
</clipPath>
</defs>
</svg>
