<svg width="512" height="512" viewBox="0 0 512 512" fill="none" xmlns="http://www.w3.org/2000/svg">
<g clip-path="url(#clip0_5_32)">
<path d="M461.879 49.1166C433.528 48.6888 409.052 71.44 409.052 100.083V185.058C395.881 184.792 383.225 190.177 374.783 198.852C364.917 208.717 357.138 216.492 351.004 222.619C341.286 232.327 329.253 239.985 315.236 245.38C290.046 255.075 273.122 279.726 273.122 306.722V416.92C261.138 416.92 250.907 416.92 238.874 416.92V306.721C238.874 279.674 221.909 255.006 196.661 245.337C182.725 240.001 170.704 232.341 160.933 222.569C134.559 196.195 136.778 198.379 135.481 197.202C126.112 188.776 114.445 184.784 102.946 185.021V101.8C102.946 74.5814 82.0155 51.5153 55.2943 49.2885C25.2819 46.7848 -4.85955e-05 70.4875 -4.85955e-05 100.083V255.958C-0.0140414 259.36 0.589645 310.12 46.4929 347.577C75.5209 371.263 81.107 400.557 81.7037 416.919H55.971C47.6913 416.919 40.9787 423.632 40.9787 431.911V496.878C40.9787 505.158 47.6913 511.87 55.971 511.87H455.764C464.044 511.87 470.756 505.158 470.756 496.878V431.911C470.756 423.632 464.044 416.919 455.764 416.919H430.297C430.894 400.557 436.48 371.263 465.508 347.577C511.411 310.121 512.014 259.36 512.001 255.958V100.795C512 72.7563 489.516 49.5733 461.879 49.1166V49.1166ZM65.4501 324.345C30.4502 295.787 29.9874 257.678 29.9844 256.156C29.9864 256.056 29.9854 197.542 29.9854 100.083C29.9854 87.8305 40.404 78.1306 52.8066 79.171C64.1088 80.1125 72.9622 90.0534 72.9622 101.801V196.74C52.7307 214.463 51.3854 245.878 70.7273 265.235L120.431 314.939C126.285 320.794 135.778 320.794 141.633 314.939C147.488 309.085 147.488 299.592 141.633 293.737L91.9334 244.037C83.7346 235.831 85.8265 221.503 97.1367 216.458C99.8583 215.271 102.674 214.811 105.711 215.13C110.044 215.602 112.9 217.57 112.622 217.405C115.184 218.927 114.311 218.351 139.733 243.772C152.5 256.54 168.047 266.488 185.94 273.34C199.669 278.596 208.892 292.011 208.892 306.721V416.919H111.652C111.015 394.692 103.771 355.615 65.4501 324.345V324.345ZM70.9632 446.904H240.875V481.886H70.9632V446.904ZM440.772 481.886H270.86V446.904H440.772V481.886ZM482.015 256.069C482.013 257.678 481.55 295.787 446.551 324.345C408.23 355.615 400.985 394.692 400.349 416.919H303.108V306.721C303.108 292.04 312.31 278.634 326.008 273.363C343.958 266.453 359.499 256.517 372.197 243.831C397.476 218.582 397.104 218.511 400.419 216.844C404.725 214.682 410.021 214.349 414.816 216.438C425.853 221.203 428.484 235.612 420.072 244.032L370.367 293.736C364.512 299.59 364.512 309.083 370.367 314.938C376.221 320.793 385.714 320.793 391.569 314.938L441.279 265.23C460.26 246.233 459.587 214.779 439.038 196.715V100.083C439.038 88.3043 449.75 78.8962 461.383 79.0971C472.76 79.285 482.015 89.0189 482.015 100.795V256.069Z" fill="#9B8DB7"/>
<path d="M186.594 127.972L157.278 157.482C151.456 163.342 151.471 172.808 157.313 178.649L205.288 226.624C211.139 232.476 220.637 232.478 226.49 226.624L255.868 197.246L285.246 226.625C291.1 232.48 300.593 232.481 306.448 226.625L354.423 178.65C360.265 172.809 360.28 163.343 354.457 157.482L325.141 127.974L357.426 95.6885C374.783 78.3325 374.93 49.9462 357.753 32.4113C329.11 3.17041 330.251 4.29283 329.408 3.59219C326.683 1.32636 323.236 0.144973 319.887 0.134978C181.427 0.134978 192.125 0.107992 190.949 0.182953C187.641 0.390845 184.53 1.6372 181.939 3.94501C181.137 4.65864 183.944 1.82511 153.985 32.4113C136.807 49.9462 136.955 78.3335 154.313 95.6915L186.594 127.972ZM322.654 168.014L295.847 194.82L277.07 176.043L303.938 149.175L322.654 168.014ZM336.224 74.4855L215.888 194.82L189.081 168.013C452.163 -96.7968 216.476 140.437 319.759 36.4752L336.332 53.3934C342.059 59.2384 342.01 68.6995 336.224 74.4855V74.4855ZM255.869 58.2419L227.929 30.1195H283.807L255.869 58.2419ZM175.405 53.3934L191.977 36.4752L234.734 79.5139L207.726 106.7L175.515 74.4895C169.729 68.7025 169.679 59.2394 175.405 53.3934V53.3934Z" fill="#9B8DB7"/>
</g>
<defs>
<clipPath id="clip0_5_32">
<rect width="512" height="512" fill="white"/>
</clipPath>
</defs>
</svg>
