<svg width="512" height="512" viewBox="0 0 512 512" fill="none" xmlns="http://www.w3.org/2000/svg">
<g clip-path="url(#clip0_5_192)">
<path d="M510.344 297.178C457.055 192.776 461.042 199.917 458.714 197.531C457.282 196.073 455.669 194.987 453.947 194.242C450.636 192.806 448.085 193.005 445.378 193.005C443.623 184.879 440.472 177.27 436.192 170.434C452.023 162.866 462.986 146.695 462.986 128.009C462.986 106.651 448.664 88.5755 429.121 82.8789C423.426 63.3361 405.349 49.014 383.991 49.014C362.633 49.014 344.556 63.3361 338.861 82.8789C326.396 86.5127 316.061 95.1881 310.207 106.534C306.975 105.546 303.547 105.012 299.996 105.012C297.239 105.012 294.997 102.769 294.997 100.012V87.0126H295.997C304.28 87.0126 310.996 80.297 310.996 72.0136V15.0171C310.996 6.73365 304.28 0.0180664 295.997 0.0180664H216.001C207.718 0.0180664 201.002 6.73365 201.002 15.0171V72.0136C201.002 80.297 207.718 87.0126 216.001 87.0126H217.001V100.012C217.001 102.769 214.759 105.012 212.002 105.012C206.041 105.012 200.426 106.512 195.51 109.152C184.025 64.859 164.036 33.016 136.007 33.016C112.223 33.016 94.2291 55.9456 82.3059 89.9504C81.9789 90.6884 81.7189 91.4594 81.5139 92.2543C71.0086 123.359 66.3079 160.411 65.2569 193.006C62.4631 193.006 60.0333 193.137 56.9805 194.759C55.1536 195.73 53.7137 196.962 52.5497 198.34C50.9678 200.216 54.6116 193.426 1.65492 297.179C-3.42976 307.14 3.81478 318.997 15.0141 318.997H49.012V496.986C49.012 505.269 55.7275 511.985 64.011 511.985H447.987C456.27 511.985 462.986 505.269 462.986 496.986V318.997H496.984C508.168 318.996 515.435 307.154 510.344 297.178V297.178ZM337.835 193.004C343.834 177.796 358.678 167.006 375.992 167.006C393.305 167.006 408.148 177.796 414.148 193.004C397.559 193.004 362.123 193.004 337.835 193.004ZM334.994 128.008C334.994 118.635 342.62 111.009 351.993 111.009C360.276 111.009 366.992 104.294 366.992 96.0101C366.992 86.6367 374.618 79.0111 383.991 79.0111C393.364 79.0111 400.99 86.6367 400.99 96.0101C400.99 104.294 407.706 111.009 415.989 111.009C425.362 111.009 432.988 118.635 432.988 128.008C432.988 137.381 425.362 145.007 415.989 145.007H408.669C405.569 143.392 402.336 142.002 398.99 140.852V128.008C398.99 119.725 392.274 113.009 383.991 113.009C375.708 113.009 368.992 119.725 368.992 128.008V137.355C356.409 138.593 344.79 143.14 334.994 150.096C334.994 144.382 334.994 133.416 334.994 128.008ZM231.001 30.0142H280.997V57.0125C270.858 57.0125 241.704 57.0125 231.001 57.0125V30.0142ZM207.002 140.007C207.002 137.25 209.245 135.008 212.002 135.008C231.3 135.008 247 119.308 247 100.01V87.0106H264.998V100.01C264.998 119.308 280.698 135.008 299.996 135.008C302.753 135.008 304.996 137.25 304.996 140.007V193.004H207.002V140.007ZM96.914 167.006H112.009C120.292 167.006 127.008 160.29 127.008 152.007C127.008 143.723 120.292 137.008 112.009 137.008H101.02C102.694 127.815 104.709 119.115 107.035 111.009H112.008C120.291 111.009 127.007 104.294 127.007 96.0101C127.007 89.8554 123.296 84.5718 117.992 82.2599C125.655 67.4419 132.716 63.0121 136.007 63.0121C140.348 63.0121 151.253 70.7066 161.445 99.8278C170.247 124.976 175.58 157.626 176.756 193.004H95.2571C95.552 184.142 96.108 175.45 96.914 167.006ZM432.988 481.986H79.0101V318.996H432.988V481.986ZM39.5105 288.998L73.1954 223.002H438.804L472.489 288.998H39.5105Z" fill="#9B8DB7"/>
<path d="M287.997 446.988H383.991C392.275 446.988 398.99 440.273 398.99 431.989C398.99 423.706 392.275 416.99 383.991 416.99H287.997C279.714 416.99 272.998 423.706 272.998 431.989C272.998 440.273 279.714 446.988 287.997 446.988Z" fill="#9B8DB7"/>
<path d="M287.997 382.992H383.991C392.275 382.992 398.99 376.276 398.99 367.993C398.99 359.709 392.275 352.994 383.991 352.994H287.997C279.714 352.994 272.998 359.709 272.998 367.993C272.998 376.276 279.714 382.992 287.997 382.992Z" fill="#9B8DB7"/>
<path d="M128.007 446.988H224.001C232.285 446.988 239 440.272 239 431.989V367.993C239 359.709 232.285 352.994 224.001 352.994H128.007C119.724 352.994 113.008 359.709 113.008 367.993V431.989C113.008 440.272 119.724 446.988 128.007 446.988ZM143.006 382.992H209.002V416.99H143.006V382.992Z" fill="#9B8DB7"/>
</g>
<defs>
<clipPath id="clip0_5_192">
<rect width="512" height="512" fill="white"/>
</clipPath>
</defs>
</svg>
