<svg width="512" height="512" viewBox="0 0 512 512" fill="none" xmlns="http://www.w3.org/2000/svg">
<path d="M348.171 209.042C371.716 185.425 372.209 146.803 348.104 122.698C324.281 98.8755 285.517 98.8755 261.693 122.698L256 128.39L250.307 122.698C226.484 98.8735 187.72 98.8745 163.896 122.698C140.072 146.521 140.072 185.285 163.896 209.109L245.393 290.606C251.25 296.464 260.748 296.465 266.606 290.606C358.953 198.26 347.116 210.061 348.171 209.042ZM326.924 187.863C326.075 188.714 335.976 178.812 256 258.787L185.109 187.897C179.226 182.014 175.991 174.196 176 165.883C176.018 148.53 190.088 134.818 207.102 134.818C215.067 134.818 223.031 137.85 229.095 143.913L245.394 160.212C251.251 166.07 260.749 166.07 266.607 160.212L282.906 143.913C295.032 131.786 314.764 131.786 326.891 143.913C338.893 155.915 339.175 175.576 326.924 187.863V187.863Z" fill="#9B8DB7"/>
<path d="M436.613 271.486C448.961 243.72 455.001 220.226 455.001 200.001C455.001 89.7204 365.729 0 256 0C146.271 0 56.9991 89.7204 56.9991 200.001C56.9991 220.225 63.0392 243.72 75.3872 271.486C45.2381 289.474 24.999 322.416 24.999 360.001C24.999 383.94 40.4441 415.181 72.2162 455.51C94.5253 483.826 116.504 505.726 117.428 506.645C123.277 512.454 132.719 512.455 138.569 506.645C153.419 491.898 174.781 467.792 191.357 445.646C221.086 481.75 243.994 506.133 245.081 507.286C251.003 513.573 261.002 513.568 266.919 507.286C268.006 506.132 290.914 481.75 320.643 445.646C337.33 467.939 358.879 492.194 373.43 506.645C379.279 512.454 388.721 512.455 394.571 506.645C395.496 505.727 417.476 483.826 439.784 455.51C471.556 415.181 487.001 383.94 487.001 360.001C487.001 322.416 466.762 289.474 436.613 271.486ZM127.999 474.475C96.1913 440.651 54.9991 387.621 54.9991 360.001C54.9991 319.749 87.7473 287.001 127.999 287.001C168.252 287.001 201 319.749 201 360.001C201 387.621 159.807 440.653 127.999 474.475ZM256 474.78C245.486 463.101 228.368 443.633 209.059 419.907C223.777 396.147 231 376.365 231 360.001C231 293.445 168.287 243.831 103.135 260.042C92.4293 236.097 86.9993 215.934 86.9993 200.001C86.9993 106.262 162.813 30.0001 256 30.0001C349.187 30.0001 425.001 106.262 425.001 200.001C425.001 215.934 419.571 236.097 408.865 260.042C343.767 243.844 281 293.398 281 360.001C281 376.366 288.223 396.147 302.941 419.907C283.632 443.633 266.514 463.101 256 474.78V474.78ZM384 474.475C352.192 440.651 311 387.621 311 360.001C311 319.749 343.748 287.001 384 287.001C424.253 287.001 457.001 319.749 457.001 360.001C457.001 387.621 415.808 440.653 384 474.475Z" fill="#9B8DB7"/>
<path d="M384 313.001C358.084 313.001 337 334.085 337 360.001C337 385.917 358.084 407.001 384 407.001C409.916 407.001 431 385.917 431 360.001C431 334.085 409.916 313.001 384 313.001ZM384 377.001C374.626 377.001 367 369.375 367 360.001C367 350.627 374.626 343.001 384 343.001C393.374 343.001 401 350.627 401 360.001C401 369.375 393.374 377.001 384 377.001Z" fill="#9B8DB7"/>
<path d="M127.999 313.001C102.083 313.001 80.9994 334.085 80.9994 360.001C80.9994 385.917 102.083 407.001 127.999 407.001C153.915 407.001 174.999 385.917 174.999 360.001C174.999 334.085 153.915 313.001 127.999 313.001ZM127.999 377.001C118.625 377.001 110.999 369.375 110.999 360.001C110.999 350.627 118.625 343.001 127.999 343.001C137.373 343.001 144.999 350.627 144.999 360.001C144.999 369.375 137.373 377.001 127.999 377.001Z" fill="#9B8DB7"/>
</svg>
