<svg width="512" height="512" viewBox="0 0 512 512" fill="none" xmlns="http://www.w3.org/2000/svg">
<path d="M88 417H72C63.716 417 57 423.716 57 432C57 440.284 63.716 447 72 447H88C96.284 447 103 440.284 103 432C103 423.716 96.284 417 88 417Z" fill="#9B8DB7"/>
<path d="M88 353H72C63.716 353 57 359.716 57 368C57 376.284 63.716 383 72 383H88C96.284 383 103 376.284 103 368C103 359.716 96.284 353 88 353Z" fill="#9B8DB7"/>
<path d="M88 289H72C63.716 289 57 295.716 57 304C57 312.284 63.716 319 72 319H88C96.284 319 103 312.284 103 304C103 295.716 96.284 289 88 289Z" fill="#9B8DB7"/>
<path d="M200 319H216C224.284 319 231 312.284 231 304C231 295.716 224.284 289 216 289H200C191.716 289 185 295.716 185 304C185 312.284 191.716 319 200 319Z" fill="#9B8DB7"/>
<path d="M312 289H296C287.716 289 281 295.716 281 304C281 312.284 287.716 319 296 319H312C320.284 319 327 312.284 327 304C327 295.716 320.284 289 312 289Z" fill="#9B8DB7"/>
<path d="M496 225H383V95H400C408.284 95 415 88.284 415 80V15C415 6.716 408.284 0 400 0H112C103.716 0 97 6.716 97 15V80C97 88.284 103.716 95 112 95H129V225H16C7.716 225 1 231.716 1 240V497C1 505.284 7.716 512 16 512H496C504.284 512 511 505.284 511 497V240C511 231.716 504.284 225 496 225ZM127 30H385V65C352.99 65 139.815 65 127 65V30ZM31 255H129V482H31V255ZM159 95H353V482H327V368C327 359.716 320.284 353 312 353H200C191.716 353 185 359.716 185 368V482H159C159 466.511 159 110.488 159 95ZM215 482V447H224C232.284 447 239 440.284 239 432C239 423.716 232.284 417 224 417H215V383H297V482H215ZM481 482H383V255H481V482Z" fill="#9B8DB7"/>
<path d="M424 447H440C448.284 447 455 440.284 455 432C455 423.716 448.284 417 440 417H424C415.716 417 409 423.716 409 432C409 440.284 415.716 447 424 447Z" fill="#9B8DB7"/>
<path d="M424 383H440C448.284 383 455 376.284 455 368C455 359.716 448.284 353 440 353H424C415.716 353 409 359.716 409 368C409 376.284 415.716 383 424 383Z" fill="#9B8DB7"/>
<path d="M424 319H440C448.284 319 455 312.284 455 304C455 295.716 448.284 289 440 289H424C415.716 289 409 295.716 409 304C409 312.284 415.716 319 424 319Z" fill="#9B8DB7"/>
<path d="M200 231H217V248C217 256.284 223.716 263 232 263H280C288.284 263 295 256.284 295 248V231H312C320.284 231 327 224.284 327 216V168C327 159.716 320.284 153 312 153H295V136C295 127.716 288.284 121 280 121H232C223.716 121 217 127.716 217 136V153H200C191.716 153 185 159.716 185 168V216C185 224.284 191.716 231 200 231ZM215 183H232C240.284 183 247 176.284 247 168V151H265V168C265 176.284 271.716 183 280 183H297V201H280C271.716 201 265 207.716 265 216V233H247V216C247 207.716 240.284 201 232 201H215V183Z" fill="#9B8DB7"/>
</svg>
